<svg xmlns="http://www.w3.org/2000/svg" width="240" height="234"><path fill="#FF4A19" fill-rule="evenodd" d="M0 0h240v234H0z" clip-rule="evenodd"/><path fill="#260600" fill-rule="evenodd" d="M10 10h220v214H10z" clip-rule="evenodd"/><path fill="#FF4A19" fill-rule="evenodd" d="M67 132.4l-8 29.9c-.2.8-.5.9-1.5.9H42.8c-1 0-1.2-.3-1-1.5l28.5-99.6c.5-1.8.8-2.9 1-7.9 0-.7.3-1 .8-1h21c.7 0 1 .2 1.2 1l31.9 107.7c.2.8 0 1.3-.8 1.3h-16.5c-.8 0-1.3-.1-1.5-.7l-8.3-30.1H67zm27.9-16.5c-2.8-11.1-9.4-35.2-11.9-47h-.2c-2.1 11.7-7.4 31.4-11.6 47h23.7zm40.7-17.5c0-1 0-4.5-.5-10.3 0-.7.2-.8.9-1.2 8.4-3.1 19.4-6.6 30.8-6.6 14.1 0 29.5 5.5 29.5 29.6v52c0 1-.3 1.3-1.2 1.3h-15c-1 0-1.3-.5-1.3-1.3v-50.6c0-9.6-3.4-14.9-13.3-14.9-4.3 0-8.4.8-11.3 1.8v63.9c0 .7-.3 1.2-1 1.2h-16.3c-.8 0-1.2-.3-1.2-1.2V98.4z" clip-rule="evenodd"/></svg>
