<svg xmlns="http://www.w3.org/2000/svg" fill="none" viewBox="0 0 129 129"><path fill="#FFC131" d="M79.66 46.7a12.24 12.24 0 1 1-24.47-.02 12.24 12.24 0 0 1 24.47.01Z"/><ellipse cx="46.83" cy="81.71" fill="#24C8DB" rx="12.24" ry="12.23" transform="rotate(180 46.83 81.71)"/><path fill="#FFC131" fill-rule="evenodd" d="M92.8 85.91a46.78 46.78 0 0 1-16.14 6.56 32.71 32.71 0 0 0 1.56-14.79 32.86 32.86 0 0 0 19.15-17.5 32.78 32.78 0 0 0-21.1-45.09 32.89 32.89 0 0 0-35.55 12.48 54.59 54.59 0 0 0-17.92 5.2A46.68 46.68 0 0 1 53.56 2.1a46.8 46.8 0 0 1 48.87 13.65 46.67 46.67 0 0 1-9.64 70.16ZM23.34 41.3l11.46 1.4c.28-2.21.77-4.39 1.48-6.49a46.79 46.79 0 0 0-12.94 5.09Z" clip-rule="evenodd"/><path fill="#24C8DB" fill-rule="evenodd" d="M21.37 42.5a46.78 46.78 0 0 1 16.26-6.58 32.7 32.7 0 0 0-1.83 14.86 32.86 32.86 0 0 0-19 17.46 32.78 32.78 0 0 0 21.1 45.07 32.88 32.88 0 0 0 35.55-12.48 54.57 54.57 0 0 0 17.93-5.24 46.68 46.68 0 0 1-30.77 30.72 46.8 46.8 0 0 1-48.87-13.66 46.67 46.67 0 0 1 9.63-70.15ZM90.75 87.1Zm-11.93 4.85-.94.23.94-.23Z" clip-rule="evenodd"/></svg>
